<?xml version="1.0" encoding="utf-8"?>
<!-- Generator: Adobe Illustrator 18.1.1, SVG Export Plug-In . SVG Version: 6.00 Build 0)  -->
<svg version="1.1" id="Livello_1" xmlns="http://www.w3.org/2000/svg" xmlns:xlink="http://www.w3.org/1999/xlink" x="0px" y="0px"
	 viewBox="0 0 64 64" enable-background="new 0 0 64 64" xml:space="preserve">
<g>
	<path fill="#E6E6E5" stroke="#E6E6E5" stroke-width="2" stroke-miterlimit="10" d="M27.9,43l-1.5-0.8V21.6l1.5-0.8l13.2,10.4v1.5
		L27.9,43z M28.2,23.6v16.7l10.6-8.4L28.2,23.6z"/>
	<path fill="#E6E6E5" stroke="#E6E6E5" stroke-width="2" stroke-miterlimit="10" d="M32,62c-8,0-15.6-3.1-21.2-8.8
		C5.1,47.6,2,40,2,32s3.1-15.6,8.8-21.2C16.4,5.1,24,2,32,2s15.6,3.1,21.2,8.8C58.9,16.4,62,24,62,32s-3.1,15.6-8.8,21.2
		C47.6,58.9,40,62,32,62z M32,3.8c-7.5,0-14.6,2.9-19.8,8.2C6.8,17.4,3.8,24.5,3.8,32s2.9,14.6,8.2,19.8c5.3,5.3,12.4,8.2,19.8,8.2
		c7.5,0,14.6-2.9,19.9-8.2s8.2-12.4,8.2-19.8s-2.9-14.6-8.2-19.8C46.6,6.8,39.5,3.8,32,3.8z"/>
</g>
</svg>
