<?xml version="1.0" encoding="utf-8"?>
<!-- Generator: Adobe Illustrator 18.1.1, SVG Export Plug-In . SVG Version: 6.00 Build 0)  -->
<svg version="1.1" id="Livello_1" xmlns="http://www.w3.org/2000/svg" xmlns:xlink="http://www.w3.org/1999/xlink" x="0px" y="0px"
	 viewBox="0 0 64 64" enable-background="new 0 0 64 64" xml:space="preserve">
<g>
	<path fill="#E6E6E5" d="M27.8,43.4l-1.6-0.8V21.3l1.6-0.8l13.6,10.7v1.5L27.8,43.4z M28.1,23.3v17.3l11-8.7L28.1,23.3z"/>
	<path fill="#E6E6E5" d="M32,63c-8.3,0-16.1-3.2-21.9-9.1C4.2,48.1,1,40.3,1,32c0-8.3,3.2-16.1,9.1-21.9C15.9,4.2,23.7,1,32,1
		c8.3,0,16.1,3.2,21.9,9.1C59.8,15.9,63,23.7,63,32c0,8.3-3.2,16.1-9.1,21.9C48.1,59.8,40.3,63,32,63z M32,2.9
		c-7.8,0-15.1,3-20.5,8.5C6,16.9,2.9,24.2,2.9,32s3,15.1,8.5,20.5c5.5,5.5,12.8,8.5,20.5,8.5c7.8,0,15.1-3,20.6-8.5
		c5.5-5.5,8.5-12.8,8.5-20.5s-3-15.1-8.5-20.5C47.1,6,39.8,2.9,32,2.9z"/>
</g>
</svg>
