<?xml version="1.0" encoding="utf-8"?>
<!-- Generator: Adobe Illustrator 18.1.1, SVG Export Plug-In . SVG Version: 6.00 Build 0)  -->
<svg version="1.1" id="Livello_1" xmlns="http://www.w3.org/2000/svg" xmlns:xlink="http://www.w3.org/1999/xlink" x="0px" y="0px"
	 viewBox="0 0 64 64" enable-background="new 0 0 64 64" xml:space="preserve">
<g>
	<path fill="#E6E6E5" d="M46.5,48.5H17.5C8.4,48.5,1,41.1,1,32s7.4-16.5,16.5-16.5h29.1C55.6,15.5,63,22.9,63,32
		S55.6,48.5,46.5,48.5z M17.5,17.5C9.5,17.5,2.9,24,2.9,32s6.5,14.5,14.5,14.5h29.1c8,0,14.5-6.5,14.5-14.5s-6.5-14.5-14.5-14.5
		H17.5z"/>
	<path fill="#E6E6E5" d="M46.5,42.3c-5.7,0-10.3-4.6-10.3-10.3s4.6-10.3,10.3-10.3S56.9,26.3,56.9,32S52.2,42.3,46.5,42.3z
		 M46.5,23.3c-4.8,0-8.7,3.9-8.7,8.7s3.9,8.7,8.7,8.7s8.7-3.9,8.7-8.7S51.4,23.3,46.5,23.3z"/>
</g>
</svg>
