<?xml version="1.0" encoding="utf-8"?>
<!-- Generator: Adobe Illustrator 18.1.1, SVG Export Plug-In . SVG Version: 6.00 Build 0)  -->
<svg version="1.1" id="Livello_1" xmlns="http://www.w3.org/2000/svg" xmlns:xlink="http://www.w3.org/1999/xlink" x="0px" y="0px"
	 viewBox="0 0 64 64" enable-background="new 0 0 64 64" xml:space="preserve">
<path fill="#19191A" stroke="#19191A" stroke-width="2" stroke-miterlimit="10" d="M18,16h28.2C54.8,16,62,23.2,62,32s-7.2,16-16,16
	H18C9.2,48,2,40.8,2,32S9.2,16,18,16z M46,46c7.7,0,14-6.3,14-14s-6.3-14-14-14H18c-7.7,0-14.1,6.3-14.1,14s6.3,14,14,14H46z"/>
<path fill="#19191A" stroke="#19191A" stroke-width="2" stroke-miterlimit="10" d="M46,48H17.9C9.2,48,2,40.8,2,32s7.2-16,16-16H46
	c8.8,0,16,7.2,16,16S54.8,48,46,48z M18,18c-7.7,0-14,6.3-14,14s6.3,14,14,14H46c7.7,0,14.1-6.3,14.1-14s-6.3-14-14-14H18z"/>
<path fill="#19191A" stroke="#19191A" stroke-width="2" stroke-miterlimit="10" d="M18,22c5.5,0,10,4.5,10,10s-4.5,10-10,10
	S7.9,37.5,7.9,32S12.5,22,18,22z M18,40.4c4.6,0,8.4-3.8,8.4-8.4s-3.8-8.4-8.4-8.4S9.5,27.4,9.5,32S13.2,40.4,18,40.4z"/>
<path fill="#19191A" stroke="#19191A" stroke-miterlimit="10" d="M46.1,27.5c2.5,0,4.5,2,4.5,4.5s-2,4.5-4.5,4.5s-4.5-2-4.5-4.5
	S43.6,27.5,46.1,27.5z M46.1,35.8c2.1,0,3.8-1.7,3.8-3.8s-1.7-3.8-3.8-3.8s-3.8,1.7-3.8,3.8S44,35.8,46.1,35.8z"/>
</svg>
