<?xml version="1.0" encoding="utf-8"?>
<!-- Generator: Adobe Illustrator 18.1.1, SVG Export Plug-In . SVG Version: 6.00 Build 0)  -->
<svg version="1.1" id="Livello_1" xmlns="http://www.w3.org/2000/svg" xmlns:xlink="http://www.w3.org/1999/xlink" x="0px" y="0px"
	 viewBox="0 0 64 64" enable-background="new 0 0 64 64" xml:space="preserve">
<g>
	<path fill="#E6E6E5" d="M17.5,15.5h29.1C55.6,15.5,63,22.9,63,32s-7.4,16.5-16.5,16.5H17.5C8.4,48.5,1,41.1,1,32
		S8.4,15.5,17.5,15.5z M46.5,46.5c8,0,14.5-6.5,14.5-14.5s-6.5-14.5-14.5-14.5H17.5C9.5,17.5,2.9,24,2.9,32s6.5,14.5,14.5,14.5H46.5
		z"/>
	<path fill="#E6E6E5" d="M17.5,21.7c5.7,0,10.3,4.6,10.3,10.3s-4.6,10.3-10.3,10.3S7.1,37.7,7.1,32S11.8,21.7,17.5,21.7z M17.5,40.7
		c4.8,0,8.7-3.9,8.7-8.7s-3.9-8.7-8.7-8.7S8.7,27.2,8.7,32S12.6,40.7,17.5,40.7z"/>
</g>
</svg>
