<?xml version="1.0" encoding="utf-8"?>
<!-- Generator: Adobe Illustrator 18.1.1, SVG Export Plug-In . SVG Version: 6.00 Build 0)  -->
<svg version="1.1" id="Livello_1" xmlns="http://www.w3.org/2000/svg" xmlns:xlink="http://www.w3.org/1999/xlink" x="0px" y="0px"
	 viewBox="0 0 64 64" enable-background="new 0 0 64 64" xml:space="preserve">
<g>
	<g>
		<path fill="#E6E6E6" d="M32,63v-1.9c16,0,29.1-13,29.1-29.1S48,2.9,32,2.9V1c17.1,0,31,13.9,31,31S49.1,63,32,63z"/>
		<path fill="#E6E6E6" d="M12.3,55.6L6.8,50C3,44.7,1,38.5,1,32C1,14.9,14.9,1,32,1v1.9C16,2.9,2.9,16,2.9,32
			c0,6.1,1.9,11.9,5.4,16.8l5.4,5.4L12.3,55.6z"/>
		<polygon fill="#E6E6E6" points="13.6,56.2 2.9,56.2 2.9,54.3 12.6,54.3 12.6,44.6 14.6,44.6 14.6,55.3 		"/>
	</g>
</g>
</svg>
