<?xml version="1.0" encoding="utf-8"?>
<!-- Generator: Adobe Illustrator 18.1.1, SVG Export Plug-In . SVG Version: 6.00 Build 0)  -->
<svg version="1.1" id="Livello_1" xmlns="http://www.w3.org/2000/svg" xmlns:xlink="http://www.w3.org/1999/xlink" x="0px" y="0px"
	 viewBox="0 0 64 64" enable-background="new 0 0 64 64" xml:space="preserve">
<g>
	<g>
		<path fill="#E6E6E6" stroke="#E6E6E6" stroke-width="2" stroke-miterlimit="10" d="M32,62v-1.8c15.5,0,28.2-12.6,28.2-28.2
			S47.5,3.8,32,3.8V2c16.5,0,30,13.5,30,30S48.5,62,32,62z"/>
		<path fill="#E6E6E6" stroke="#E6E6E6" stroke-width="2" stroke-miterlimit="10" d="M12.9,54.8l-5.3-5.4C3.9,44.3,2,38.3,2,32
			C2,15.5,15.5,2,32,2v1.8C16.5,3.8,3.8,16.5,3.8,32c0,5.9,1.8,11.5,5.2,16.3l5.2,5.2L12.9,54.8z"/>
		<polygon fill="#E6E6E6" stroke="#E6E6E6" stroke-width="2" stroke-miterlimit="10" points="14.2,55.4 3.8,55.4 3.8,53.6 
			13.2,53.6 13.2,44.2 15.2,44.2 15.2,54.5 		"/>
	</g>
</g>
</svg>
