<?xml version="1.0" encoding="utf-8"?>
<!-- Generator: Adobe Illustrator 18.1.1, SVG Export Plug-In . SVG Version: 6.00 Build 0)  -->
<svg version="1.1" id="Livello_1" xmlns="http://www.w3.org/2000/svg" xmlns:xlink="http://www.w3.org/1999/xlink" x="0px" y="0px"
	 viewBox="0 0 64 64" enable-background="new 0 0 64 64" xml:space="preserve">
<g>
	<g>
		<g>
			<path fill="#54BA5D" stroke="#5AB35E" stroke-width="2" stroke-miterlimit="10" d="M50.7,54l-1.4-1.3l5.4-5.4
				c8-10.7,7-25.9-2.6-35.5C47,6.7,40.2,3.8,33,3.8V2c7.7,0,15.1,3,20.5,8.5c10.2,10.2,11.3,26.5,2.7,38l-0.1,0.1L50.7,54z"/>
		</g>
	</g>
	<g>
		<g>
			<path fill="#54BA5D" stroke="#5AB35E" stroke-width="2" stroke-miterlimit="10" d="M31,62c-7.7,0-15.1-3-20.5-8.5
				C0.4,43.3-0.8,27,7.8,15.5l0.1-0.1l5.2-5.2l1.4,1.3l-5.3,5.3c-8,10.7-7,25.9,2.6,35.4c5.1,5.1,12,7.9,19.3,7.9L31,62L31,62z"/>
		</g>
	</g>
	<polygon fill="#54BA5D" stroke="#5AB35E" stroke-width="2" stroke-miterlimit="10" points="60.2,54.5 49.8,54.5 48.8,53.6 
		48.8,43.2 50.8,43.2 50.8,52.6 60.2,52.6 	"/>
	<polygon fill="#54BA5D" stroke="#5AB35E" stroke-width="2" stroke-miterlimit="10" points="15.2,20.8 13.2,20.8 13.2,11.4 
		3.8,11.4 3.8,9.5 14.2,9.5 15.2,10.4 	"/>
</g>
</svg>
