<?xml version="1.0" encoding="utf-8"?>
<!-- Generator: Adobe Illustrator 18.1.1, SVG Export Plug-In . SVG Version: 6.00 Build 0)  -->
<svg version="1.1" id="Livello_1" xmlns="http://www.w3.org/2000/svg" xmlns:xlink="http://www.w3.org/1999/xlink" x="0px" y="0px"
	 viewBox="0 0 64 64" enable-background="new 0 0 64 64" xml:space="preserve">
<g>
	<g>
		<g>
			<path fill="#54BA5D" d="M51.1,55l-1.4-1.4l5.8-5.8c8.3-11.1,7.2-26.8-2.7-36.7C47.5,5.9,40.5,2.9,33,2.9V1c8,0,15.6,3.1,21.2,8.8
				C64.7,20.3,65.9,37.2,57,49.1l-0.1,0.1L51.1,55z"/>
		</g>
	</g>
	<g>
		<g>
			<path fill="#54BA5D" d="M31,63c-8,0-15.6-3.1-21.2-8.8C-0.7,43.7-1.9,26.8,7,14.9l0.1-0.1L12.9,9l1.4,1.4l-5.8,5.8
				C0.2,27.3,1.3,43,11.2,52.8c5.3,5.3,12.4,8.2,19.9,8.2V63z"/>
		</g>
	</g>
	<polygon fill="#54BA5D" points="61.1,55.3 50.4,55.3 49.4,54.3 49.4,43.6 51.4,43.6 51.4,53.3 61.1,53.3 	"/>
	<polygon fill="#54BA5D" points="14.6,20.4 12.6,20.4 12.6,10.7 2.9,10.7 2.9,8.8 13.6,8.8 14.6,9.7 	"/>
</g>
</svg>
