<?xml version="1.0" encoding="utf-8"?>
<!-- Generator: Adobe Illustrator 18.1.1, SVG Export Plug-In . SVG Version: 6.00 Build 0)  -->
<svg version="1.1" id="Livello_1" xmlns="http://www.w3.org/2000/svg" xmlns:xlink="http://www.w3.org/1999/xlink" x="0px" y="0px"
	 viewBox="0 0 64 64" enable-background="new 0 0 64 64" xml:space="preserve">
<g>
	<g>
		<polygon fill="#54BA5D" points="25.9,45.3 24.5,45.3 12.9,33.7 14.3,32.3 25.2,43.2 47.8,20.7 49.2,22 		"/>
	</g>
	<g>
		<path fill="#54BA5D" d="M32,63C14.9,63,1,49.1,1,32S14.9,1,32,1s31,13.9,31,31S49.1,63,32,63z M32,2.9C16,2.9,2.9,16,2.9,32
			c0,16,13,29.1,29.1,29.1S61.1,48,61.1,32C61.1,16,48,2.9,32,2.9z"/>
	</g>
</g>
</svg>
