<?xml version="1.0" encoding="utf-8"?>
<!-- Generator: Adobe Illustrator 18.1.1, SVG Export Plug-In . SVG Version: 6.00 Build 0)  -->
<svg version="1.1" id="Livello_1" xmlns="http://www.w3.org/2000/svg" xmlns:xlink="http://www.w3.org/1999/xlink" x="0px" y="0px"
	 viewBox="0 0 64 24" enable-background="new 0 0 64 24" xml:space="preserve">
<g>
	<path fill="#54BA5D" d="M53.3,19.9H10.8c-4.3,0-7.9-3.5-7.9-7.9c0-4.3,3.5-7.9,7.9-7.9h42.5c4.3,0,7.9,3.5,7.9,7.9
		C61.1,16.3,57.6,19.9,53.3,19.9z M10.8,4.9c-3.9,0-7.1,3.2-7.1,7.1s3.2,7.1,7.1,7.1h42.5c3.9,0,7.1-3.2,7.1-7.1s-3.2-7.1-7.1-7.1
		H10.8z"/>
</g>
<g>
	<path fill="#54BA5D" d="M24.2,14.9l-0.6-1.6h-2.2l-0.6,1.6h-1L22,9.1h1l2.1,5.7H24.2z M23.4,12.5l-0.5-1.6c0-0.1-0.1-0.3-0.2-0.5
		s-0.1-0.4-0.1-0.5c-0.1,0.3-0.2,0.7-0.3,1.1l-0.5,1.5H23.4z"/>
	<path fill="#54BA5D" d="M29.7,10.9c0,0.6-0.2,1.1-0.6,1.4s-0.9,0.5-1.7,0.5h-0.6v2.1h-0.9V9.2h1.6c0.7,0,1.2,0.1,1.6,0.4
		S29.7,10.3,29.7,10.9z M26.9,11.9h0.5c0.5,0,0.8-0.1,1.1-0.3s0.3-0.4,0.3-0.8c0-0.3-0.1-0.6-0.3-0.7s-0.5-0.2-0.9-0.2h-0.6V11.9z"
		/>
	<path fill="#54BA5D" d="M34.6,10.9c0,0.6-0.2,1.1-0.6,1.4s-0.9,0.5-1.7,0.5h-0.6v2.1h-0.9V9.2h1.6c0.7,0,1.2,0.1,1.6,0.4
		S34.6,10.3,34.6,10.9z M31.8,11.9h0.5c0.5,0,0.8-0.1,1.1-0.3s0.3-0.4,0.3-0.8c0-0.3-0.1-0.6-0.3-0.7s-0.5-0.2-0.9-0.2h-0.6V11.9z"
		/>
	<path fill="#54BA5D" d="M35.8,14.9V9.2h0.9v4.9h2.4v0.8H35.8z"/>
	<path fill="#54BA5D" d="M41.7,11.8l1.4-2.6h1l-1.9,3.5v2.2h-0.9v-2.2l-1.9-3.5h1L41.7,11.8z"/>
</g>
</svg>
