<?xml version="1.0" encoding="utf-8"?>
<!-- Generator: Adobe Illustrator 18.1.1, SVG Export Plug-In . SVG Version: 6.00 Build 0)  -->
<svg version="1.1" id="Livello_1" xmlns="http://www.w3.org/2000/svg" xmlns:xlink="http://www.w3.org/1999/xlink" x="0px" y="0px"
	 viewBox="0 0 64 24" enable-background="new 0 0 64 24" xml:space="preserve">
<g>
	<path fill="#F05151" d="M53.3,19.9H10.8c-4.3,0-7.9-3.5-7.9-7.9c0-4.3,3.5-7.9,7.9-7.9h42.5c4.3,0,7.9,3.5,7.9,7.9
		C61.1,16.3,57.6,19.9,53.3,19.9z M10.8,4.9c-3.9,0-7.1,3.2-7.1,7.1s3.2,7.1,7.1,7.1h42.5c3.9,0,7.1-3.2,7.1-7.1s-3.2-7.1-7.1-7.1
		H10.8z"/>
</g>
<g>
	<path fill="#F05151" d="M21.9,12.6v2.3H21V9.1h1.6c0.7,0,1.3,0.1,1.6,0.4s0.5,0.7,0.5,1.3c0,0.7-0.4,1.2-1.1,1.5l1.6,2.5h-1.1
		l-1.4-2.3H21.9z M21.9,11.8h0.6c0.4,0,0.8-0.1,0.9-0.2s0.3-0.4,0.3-0.7c0-0.3-0.1-0.6-0.3-0.7s-0.5-0.2-1-0.2h-0.6V11.8z"/>
	<path fill="#F05151" d="M29.3,14.9h-3.2V9.1h3.2v0.8H27v1.6h2.2v0.8H27v1.8h2.3V14.9z"/>
	<path fill="#F05151" d="M33.8,13.3c0,0.5-0.2,0.9-0.6,1.2s-0.9,0.4-1.5,0.4s-1.2-0.1-1.6-0.3v-0.9c0.3,0.1,0.5,0.2,0.8,0.3
		s0.6,0.1,0.8,0.1c0.4,0,0.6-0.1,0.8-0.2s0.3-0.3,0.3-0.6c0-0.2-0.1-0.4-0.2-0.5c-0.2-0.1-0.5-0.3-1-0.5c-0.5-0.2-0.9-0.5-1.1-0.7
		s-0.3-0.6-0.3-1c0-0.5,0.2-0.9,0.5-1.1s0.8-0.4,1.4-0.4c0.5,0,1.1,0.1,1.6,0.4l-0.3,0.8c-0.5-0.2-1-0.3-1.4-0.3
		c-0.3,0-0.5,0.1-0.7,0.2s-0.2,0.3-0.2,0.5c0,0.1,0,0.3,0.1,0.4s0.2,0.2,0.3,0.3s0.4,0.2,0.8,0.4c0.4,0.2,0.7,0.3,0.9,0.5
		s0.3,0.3,0.4,0.5S33.8,13,33.8,13.3z"/>
	<path fill="#F05151" d="M38.2,14.9h-3.2V9.1h3.2v0.8h-2.3v1.6H38v0.8h-2.2v1.8h2.3V14.9z"/>
	<path fill="#F05151" d="M41.4,14.9h-0.9V9.9h-1.7V9.1H43v0.8h-1.7V14.9z"/>
</g>
</svg>
